<svg xmlns="http://www.w3.org/2000/svg" width="512" height="512" viewBox="0 0 512 512">
  <path d="M45.944 10.91h417.203c19.41 0 35.035 11.845 35.035 26.56v434.15c0 14.716-15.626 26.562-35.035 26.562H45.944c-19.41 0-35.035-11.846-35.035-26.561V37.47c0-14.716 15.626-26.562 35.035-26.562" style="fill:#2d2d2d"/>
  <path d="M121.71 409.09v-279.2h60.8v225.2h106.4v54zm238.4-232.4q-18 0-26.4-8-8-8.4-8-21.2v-8.8q0-12.8 8-20.8 8.4-8.4 26.4-8.4t26 8.4q8.4 8 8.4 20.8v8.8q0 12.8-8.4 21.2-8 8-26 8m-29.6 22.4h59.2v210h-59.2z" aria-label="Li" style="font-weight:700;font-size:400px;line-height:0;font-family:&quot;IBM Plex Sans&quot;;-inkscape-font-specification:&quot;IBM Plex Sans Bold&quot;;fill:#fff"/>
</svg>
